# xmcd
# 
# Track frame offsets:
#     150
#     12898
#     41191
#     54421
#     72796
#     85610
#     99653
#     119018
#     128931
#     143979
#     158937
#     175778
# 
# Disc length: 2532
# 
# Revision: 0
# Processed by: cddbd v1.5.2PL0 Copyright (c) Steve Scherf et al.
# Submitted via: fre:ac v1.0.17
# 
DISCID=a309e20c
DTITLE=Joe Vasconcellos - Atlas De La Música Chilena
DYEAR=1999
DGENRE=Blues
TTITLE0=Conciencia (En Vivo)
TTITLE1=Huellas (En Vivo)
TTITLE2=Hay Que Gritar
TTITLE3=Induce
TTITLE4=Khalor
TTITLE5=Mágico
TTITLE6=Me Demoro (En Vivo)
TTITLE7=Póngale Bueno
TTITLE8=Sólo Por Esta Noche
TTITLE9=Trastoque
TTITLE10=La Joya Del Pacífico
TTITLE11=Preemergencia (En Vivo)
EXTD=
EXTT0=
EXTT1=
EXTT2=
EXTT3=
EXTT4=
EXTT5=
EXTT6=
EXTT7=
EXTT8=
EXTT9=
EXTT10=
EXTT11=
PLAYORDER=
